<svg xmlns="http://www.w3.org/2000/svg" viewBox="0 0 1433.89 297.54"><defs><style>.cls-1{font-size:243.52px;fill:#4b4b4b;font-family:CenturyGothic, Century Gothic;letter-spacing:-0.1em;}.cls-2{fill:#a13130;stroke:#a13130;stroke-miterlimit:10;}</style></defs><title>logo_w_name-03</title><g id="Layer_3" data-name="Layer 3"><text class="cls-1" transform="translate(357.26 225.46)">sum of one</text></g><g id="Layer_4" data-name="Layer 4"><g id="trans"><path class="cls-2" d="M148.77,3.47A145.25,145.25,0,1,1,92.21,14.88,145.33,145.33,0,0,1,148.77,3.47m0-3A148.27,148.27,0,1,0,297,148.77,148.27,148.27,0,0,0,148.77.5Z"/></g><g id="Layer_1-2" data-name="Layer 1"><path class="cls-2" d="M297,148.77A147.9,147.9,0,0,1,240.73,265V32.53A147.87,147.87,0,0,1,297,148.77Zm-98.91-98.9h-1L140.5,80.39,132,46.88,201,10a148.27,148.27,0,1,0-2.87,278.6Z"/></g></g></svg>